<svg xmlns="http://www.w3.org/2000/svg" version="1.1" width="448" height="448" style=""><rect id="backgroundrect" width="100%" height="100%" x="0" y="0" fill="none" stroke="none"/>
<title/>


<g class="currentLayer" style=""><title>Layer 1</title><g id="icomoon-ignore">
</g><path fill="none" d="M365.588163793087,324.03756803274155 c-5.871279835700989,-42.228051126003265 -23.033482432365417,-79.71391469240189 -61.42261981964111,-84.90773916244507 c-19.872024059295654,21.678571701049805 -48.55096787214279,35.4534974694252 -80.16555160284042,35.4534974694252 s-60.29352754354477,-13.774925768375397 -80.16555160284042,-35.4534974694252 c-38.389137387275696,5.193824470043182 -55.551339983940125,42.6796880364418 -61.42261981964111,84.90773916244507 c31.388765275478363,44.260417222976685 83.10119152069092,73.39099794626236 141.58817142248154,73.39099794626236 s110.19940614700317,-29.130580723285675 141.58817142248154,-73.39099794626236 zM310.7142791748047,166.19046783447266 c0,-47.873512506484985 -38.84077429771423,-86.71428680419922 -86.71428680419922,-86.71428680419922 s-86.71428680419922,38.84077429771423 -86.71428680419922,86.71428680419922 s38.84077429771423,86.71428680419922 86.71428680419922,86.71428680419922 s86.71428680419922,-38.84077429771423 86.71428680419922,-86.71428680419922 zM426.3333282470703,223.99999237060547 c0,111.32849842309952 -90.32738208770752,202.33333587646484 -202.33333587646484,202.33333587646484 c-111.78013533353806,0 -202.33333587646484,-90.77901899814606 -202.33333587646484,-202.33333587646484 c0,-111.78013533353806 90.55320054292679,-202.33333587646484 202.33333587646484,-202.33333587646484 s202.33333587646484,90.55320054292679 202.33333587646484,202.33333587646484 z" id="svg_1" class="" stroke-opacity="1" stroke="#9be1a0" stroke-width="10"/></g></svg>